<svg width="20" height="20" viewBox="0 0 20 20" fill="none" xmlns="http://www.w3.org/2000/svg">
<g clip-path="url(#clip0_72_72)">
<mask id="mask0_72_72" style="mask-type:luminance" maskUnits="userSpaceOnUse" x="0" y="0" width="20" height="20">
<path d="M0.493469 0.493896H19.5035V19.5039H0.493469V0.493896Z" fill="white"/>
</mask>
<g mask="url(#mask0_72_72)">
<path d="M19.1448 9.15242L10.8452 0.852786C10.831 0.83862 10.8165 0.824766 10.8017 0.811328C10.7868 0.797891 10.7717 0.784766 10.7562 0.772057C10.7407 0.759349 10.7249 0.747057 10.7088 0.735078C10.6927 0.723151 10.6764 0.711641 10.6597 0.700495C10.643 0.689349 10.6261 0.67862 10.6089 0.668359C10.5918 0.658047 10.5743 0.648151 10.5567 0.638724C10.539 0.629245 10.5211 0.620234 10.503 0.611693C10.4849 0.603099 10.4666 0.595026 10.4481 0.587318C10.4295 0.579661 10.4109 0.572474 10.392 0.565703C10.3731 0.558932 10.3541 0.552682 10.335 0.546849C10.3158 0.541016 10.2965 0.535703 10.277 0.530807C10.2576 0.525964 10.2381 0.521589 10.2184 0.51763C10.1988 0.513724 10.1791 0.510339 10.1592 0.50737C10.1394 0.504453 10.1195 0.502005 10.0996 0.500026C10.0796 0.498047 10.0597 0.496589 10.0397 0.495599C10.0197 0.494609 9.99964 0.494141 9.97959 0.494141C9.95959 0.494141 9.93954 0.494609 9.91954 0.495599C9.89954 0.496589 9.87959 0.498047 9.85964 0.500026C9.83969 0.502005 9.8198 0.504453 9.8 0.50737C9.78016 0.510339 9.76042 0.513724 9.74079 0.51763C9.72115 0.521589 9.70162 0.525964 9.68219 0.530807C9.66271 0.535703 9.64344 0.541016 9.62428 0.546849C9.60511 0.552682 9.5861 0.558932 9.56719 0.565703C9.54834 0.572474 9.52964 0.579661 9.51115 0.587318C9.49266 0.595026 9.47433 0.603099 9.45625 0.611693C9.43813 0.620234 9.42021 0.629245 9.40256 0.638724C9.3849 0.648151 9.36745 0.658047 9.35032 0.668359C9.33313 0.67862 9.3162 0.689349 9.29954 0.700495C9.28287 0.711641 9.26651 0.723151 9.25042 0.735078C9.23433 0.747057 9.21855 0.759349 9.20308 0.772057C9.18756 0.784766 9.1724 0.797891 9.15756 0.811328C9.14271 0.824766 9.12823 0.83862 9.11407 0.852786L7.39131 2.57555L9.57745 4.76169C10.0859 4.58346 10.6681 4.70529 11.0733 5.11044C11.0972 5.1344 11.1203 5.15924 11.1426 5.18487C11.1648 5.21044 11.1861 5.23685 11.2065 5.26393C11.2269 5.29107 11.2463 5.31883 11.2647 5.34732C11.2831 5.37575 11.3006 5.40482 11.317 5.4345C11.3334 5.46419 11.3488 5.4944 11.363 5.52518C11.3773 5.55591 11.3905 5.58716 11.4027 5.61883C11.4147 5.65049 11.4257 5.68258 11.4356 5.71503C11.4455 5.74747 11.4542 5.78018 11.4618 5.81325C11.4694 5.84633 11.4758 5.87961 11.481 5.9131C11.4863 5.94659 11.4904 5.98029 11.4933 6.01404C11.4962 6.04784 11.4979 6.08169 11.4985 6.1156C11.499 6.1495 11.4983 6.18341 11.4965 6.21727C11.4947 6.25112 11.4917 6.28492 11.4875 6.31857C11.4833 6.35221 11.4779 6.38565 11.4714 6.41893C11.4648 6.45221 11.4572 6.48523 11.4483 6.51799C11.4395 6.55075 11.4295 6.58315 11.4184 6.61518L13.5256 8.72232C14.0353 8.54648 14.6234 8.65992 15.0303 9.06805C15.0472 9.08492 15.0637 9.10216 15.0797 9.11987C15.0957 9.13753 15.1113 9.15555 15.1264 9.17398C15.1416 9.19242 15.1563 9.21122 15.1704 9.23039C15.1846 9.24956 15.1984 9.26904 15.2117 9.28888C15.2249 9.30867 15.2377 9.32883 15.25 9.3493C15.2622 9.36976 15.274 9.39049 15.2852 9.41154C15.2965 9.43258 15.3072 9.45383 15.3174 9.47539C15.3276 9.49695 15.3372 9.51877 15.3464 9.54081C15.3555 9.56284 15.3641 9.58508 15.3721 9.60753C15.3802 9.62997 15.3877 9.65263 15.3946 9.67544C15.4016 9.69825 15.4079 9.72128 15.4137 9.7444C15.4195 9.76753 15.4247 9.79081 15.4294 9.81419C15.4341 9.83758 15.4381 9.86107 15.4416 9.88466C15.4451 9.90825 15.4481 9.93195 15.4504 9.95565C15.4527 9.9794 15.4545 10.0032 15.4557 10.027C15.4568 10.0508 15.4575 10.0747 15.4575 10.0985C15.4575 10.1224 15.4568 10.1462 15.4557 10.17C15.4545 10.1939 15.4528 10.2176 15.4504 10.2414C15.4481 10.2651 15.4452 10.2888 15.4417 10.3124C15.4382 10.336 15.4341 10.3595 15.4294 10.3828C15.4248 10.4063 15.4196 10.4295 15.4138 10.4526C15.408 10.4758 15.4016 10.4988 15.3947 10.5216C15.3878 10.5444 15.3803 10.5671 15.3722 10.5895C15.3642 10.612 15.3556 10.6342 15.3465 10.6563C15.3374 10.6783 15.3277 10.7001 15.3175 10.7216C15.3073 10.7432 15.2966 10.7645 15.2854 10.7855C15.2741 10.8066 15.2623 10.8273 15.2501 10.8478C15.2378 10.8683 15.2251 10.8884 15.2118 10.9083C15.1985 10.928 15.1848 10.9476 15.1706 10.9667C15.1564 10.9859 15.1417 11.0047 15.1266 11.0231C15.1115 11.0415 15.0959 11.0596 15.0799 11.0773C15.0639 11.0949 15.0474 11.1122 15.0305 11.1291C15.0137 11.1459 14.9964 11.1624 14.9787 11.1784C14.961 11.1944 14.943 11.21 14.9245 11.2251C14.9061 11.2402 14.8873 11.2549 14.8681 11.2691C14.849 11.2833 14.8295 11.2971 14.8096 11.3103C14.7898 11.3235 14.7697 11.3363 14.7492 11.3486C14.7288 11.3608 14.708 11.3725 14.6869 11.3838C14.6659 11.395 14.6446 11.4058 14.623 11.4159C14.6015 11.4261 14.5797 11.4358 14.5577 11.4449C14.5356 11.454 14.5133 11.4626 14.4909 11.4707C14.4684 11.4787 14.4458 11.4861 14.423 11.493C14.4002 11.5 14.3771 11.5063 14.354 11.5121C14.3309 11.5179 14.3076 11.5231 14.2842 11.5278C14.2608 11.5324 14.2373 11.5365 14.2137 11.54C14.1901 11.5435 14.1665 11.5464 14.1427 11.5487C14.119 11.551 14.0952 11.5528 14.0714 11.5539C14.0476 11.5551 14.0237 11.5557 13.9998 11.5556C13.976 11.5556 13.9522 11.5551 13.9283 11.5539C13.9045 11.5527 13.8807 11.551 13.857 11.5486C13.8333 11.5462 13.8096 11.5433 13.786 11.5398C13.7625 11.5363 13.739 11.5322 13.7155 11.5275C13.6921 11.5229 13.6689 11.5176 13.6457 11.5118C13.6226 11.506 13.5996 11.4997 13.5768 11.4927C13.554 11.4858 13.5314 11.4783 13.5089 11.4702C13.4865 11.4622 13.4642 11.4536 13.4422 11.4445C13.4202 11.4353 13.3983 11.4257 13.3768 11.4154C13.3552 11.4052 13.334 11.3945 13.3129 11.3833C13.2919 11.372 13.2712 11.3602 13.2507 11.3479C13.2303 11.3357 13.2101 11.3229 13.1903 11.3097C13.1705 11.2964 13.1509 11.2826 13.1318 11.2684C13.1127 11.2542 13.0939 11.2395 13.0755 11.2244C13.057 11.2092 13.039 11.1937 13.0213 11.1776C13.0037 11.1616 12.9864 11.1451 12.9695 11.1283C12.5418 10.7005 12.436 10.0709 12.6523 9.54388L10.6871 7.57872V12.7501C10.8307 12.8211 10.9594 12.913 11.0733 13.0257C11.0902 13.0426 11.1066 13.0598 11.1226 13.0775C11.1386 13.0951 11.1542 13.1132 11.1693 13.1316C11.1844 13.1501 11.1991 13.1688 11.2133 13.188C11.2275 13.2072 11.2412 13.2266 11.2544 13.2465C11.2677 13.2663 11.2805 13.2864 11.2927 13.3068C11.305 13.3273 11.3167 13.348 11.328 13.3691C11.3392 13.3901 11.3499 13.4114 11.3601 13.4329C11.3703 13.4545 11.38 13.4763 11.3891 13.4983C11.3982 13.5203 11.4068 13.5426 11.4148 13.565C11.4228 13.5875 11.4303 13.6101 11.4372 13.6329C11.4442 13.6558 11.4505 13.6787 11.4563 13.7018C11.4621 13.725 11.4673 13.7482 11.472 13.7716C11.4766 13.795 11.4807 13.8185 11.4842 13.8421C11.4877 13.8657 11.4906 13.8893 11.493 13.913C11.4953 13.9367 11.497 13.9605 11.4982 13.9843C11.4994 14.0081 11.5 14.032 11.5 14.0558C11.5 14.0797 11.4994 14.1035 11.4982 14.1273C11.497 14.1511 11.4953 14.1749 11.493 14.1986C11.4906 14.2223 11.4877 14.246 11.4842 14.2696C11.4807 14.2931 11.4766 14.3166 11.472 14.34C11.4673 14.3634 11.4621 14.3866 11.4563 14.4098C11.4505 14.4329 11.4442 14.4559 11.4372 14.4787C11.4303 14.5015 11.4228 14.5241 11.4148 14.5466C11.4068 14.569 11.3982 14.5913 11.3891 14.6133C11.38 14.6353 11.3703 14.6571 11.3601 14.6787C11.3499 14.7002 11.3392 14.7215 11.328 14.7425C11.3167 14.7636 11.305 14.7843 11.2927 14.8048C11.2805 14.8252 11.2677 14.8453 11.2544 14.8651C11.2412 14.885 11.2275 14.9045 11.2133 14.9236C11.1991 14.9428 11.1844 14.9615 11.1693 14.98C11.1542 14.9984 11.1386 15.0165 11.1226 15.0341C11.1066 15.0518 11.0902 15.069 11.0733 15.0859C11.0564 15.1028 11.0392 15.1192 11.0215 15.1352C11.0038 15.1512 10.9858 15.1668 10.9673 15.1819C10.9489 15.1971 10.9301 15.2117 10.911 15.2259C10.8918 15.2401 10.8723 15.2538 10.8525 15.2671C10.8327 15.2803 10.8126 15.2931 10.7921 15.3053C10.7717 15.3176 10.7509 15.3293 10.7299 15.3406C10.7089 15.3518 10.6876 15.3625 10.666 15.3727C10.6445 15.3829 10.6227 15.3926 10.6007 15.4017C10.5787 15.4108 10.5564 15.4194 10.534 15.4274C10.5115 15.4355 10.4889 15.4429 10.466 15.4499C10.4432 15.4568 10.4203 15.4631 10.3971 15.4689C10.374 15.4747 10.3508 15.48 10.3274 15.4846C10.304 15.4892 10.2805 15.4933 10.2569 15.4968C10.2333 15.5003 10.2097 15.5033 10.186 15.5056C10.1622 15.5079 10.1385 15.5097 10.1146 15.5109C10.0908 15.512 10.067 15.5126 10.0432 15.5126C10.0193 15.5126 9.99553 15.512 9.97167 15.5109C9.94787 15.5097 9.92412 15.5079 9.90037 15.5056C9.87667 15.5033 9.85303 15.5003 9.82943 15.4968C9.80584 15.4933 9.78235 15.4892 9.75896 15.4846C9.73558 15.48 9.71235 15.4747 9.68922 15.4689C9.6661 15.4631 9.64313 15.4568 9.62032 15.4499C9.5975 15.4429 9.57485 15.4354 9.5524 15.4274C9.52995 15.4194 9.50771 15.4108 9.48568 15.4017C9.46365 15.3926 9.44188 15.3829 9.42032 15.3727C9.39875 15.3625 9.3775 15.3518 9.35646 15.3406C9.33542 15.3293 9.31469 15.3176 9.29422 15.3053C9.27381 15.2931 9.25365 15.2803 9.23381 15.2671C9.21402 15.2538 9.19454 15.2401 9.17537 15.2259C9.1562 15.2117 9.13745 15.1971 9.11901 15.1819C9.10058 15.1668 9.0825 15.1512 9.06485 15.1352C9.04719 15.1192 9.02995 15.1028 9.01308 15.0859C8.9962 15.0691 8.97974 15.0518 8.9637 15.0341C8.94766 15.0165 8.93209 14.9985 8.91693 14.98C8.90183 14.9616 8.88714 14.9428 8.87292 14.9237C8.8587 14.9046 8.84495 14.8851 8.83167 14.8652C8.81844 14.8454 8.80563 14.8253 8.79339 14.8049C8.7811 14.7844 8.76933 14.7637 8.75808 14.7426C8.74683 14.7216 8.7361 14.7003 8.72589 14.6788C8.71568 14.6572 8.70599 14.6354 8.69688 14.6134C8.68776 14.5914 8.67917 14.5691 8.6711 14.5467C8.66308 14.5242 8.65558 14.5016 8.64865 14.4788C8.64172 14.456 8.63537 14.433 8.62954 14.4099C8.62375 14.3867 8.61855 14.3635 8.61386 14.3401C8.60922 14.3167 8.60511 14.2932 8.60162 14.2696C8.59813 14.246 8.59521 14.2224 8.59287 14.1986C8.59053 14.1749 8.58875 14.1511 8.58761 14.1273C8.58641 14.1035 8.58584 14.0797 8.58584 14.0558C8.58584 14.032 8.58641 14.0082 8.58761 13.9843C8.58875 13.9605 8.59053 13.9367 8.59287 13.913C8.59521 13.8892 8.59813 13.8656 8.60162 13.842C8.60511 13.8184 8.60922 13.7949 8.61386 13.7715C8.61855 13.7481 8.62375 13.7249 8.62954 13.7017C8.63537 13.6786 8.64172 13.6557 8.64865 13.6328C8.65558 13.61 8.66308 13.5874 8.6711 13.5649C8.67917 13.5425 8.68776 13.5202 8.69688 13.4982C8.70599 13.4762 8.71568 13.4544 8.72589 13.4328C8.7361 13.4113 8.74683 13.39 8.75808 13.369C8.76933 13.3479 8.7811 13.3272 8.79339 13.3067C8.80563 13.2863 8.81844 13.2662 8.83167 13.2464C8.84495 13.2265 8.8587 13.2071 8.87292 13.1879C8.88714 13.1688 8.90183 13.15 8.91693 13.1316C8.93209 13.1131 8.94766 13.0951 8.9637 13.0775C8.97974 13.0598 8.9962 13.0425 9.01308 13.0257C9.15386 12.8855 9.31011 12.7792 9.49011 12.7079V7.48846C9.31662 7.41716 9.15386 7.312 9.01308 7.17065C8.98766 7.14529 8.96323 7.11898 8.9398 7.09185C8.91636 7.06466 8.89396 7.03664 8.87256 7.00784C8.8512 6.97898 8.83089 6.9494 8.81172 6.91909C8.7925 6.88878 8.77448 6.85779 8.75756 6.82612C8.74068 6.79445 8.72495 6.76221 8.71047 6.72935C8.69594 6.69654 8.68266 6.66325 8.67063 6.6294C8.65855 6.5956 8.64777 6.56143 8.63829 6.5268C8.62875 6.49221 8.62053 6.45727 8.6136 6.42206C8.60667 6.38685 8.60105 6.35143 8.59672 6.31581C8.5924 6.28018 8.58938 6.24445 8.58771 6.20857C8.58605 6.17273 8.58573 6.13685 8.58672 6.10102C8.58766 6.06513 8.59 6.0293 8.5936 5.99362C8.59724 5.95789 8.60219 5.92237 8.60844 5.88706C8.61469 5.85169 8.62224 5.81664 8.6311 5.78185C8.63995 5.74706 8.65011 5.71268 8.66152 5.67862C8.67287 5.64461 8.68553 5.61107 8.69943 5.57794L6.54297 3.42268L0.851826 9.10784C0.83766 9.122 0.823857 9.13654 0.810368 9.15138C0.796878 9.16622 0.783805 9.18138 0.771097 9.19685C0.758337 9.21237 0.746045 9.22815 0.734066 9.24424C0.722139 9.26034 0.710576 9.27669 0.69943 9.29336C0.688285 9.31003 0.677555 9.32695 0.667243 9.34414C0.65693 9.36133 0.647087 9.37877 0.637607 9.39643C0.62818 9.41409 0.619118 9.432 0.610576 9.45013C0.601982 9.4682 0.593857 9.48654 0.586201 9.50508C0.578493 9.52357 0.571305 9.54226 0.564535 9.56112C0.557764 9.58002 0.551514 9.59904 0.54568 9.6182C0.539847 9.63737 0.534482 9.65669 0.529639 9.67612C0.524743 9.6956 0.520368 9.71513 0.516462 9.73477C0.512555 9.75445 0.509118 9.77419 0.506149 9.79404C0.503232 9.81383 0.500785 9.83372 0.498805 9.85367C0.496826 9.87362 0.495368 9.89362 0.494378 9.91362C0.493389 9.93362 0.49292 9.95367 0.49292 9.97372C0.49292 9.99377 0.493389 10.0138 0.494378 10.0338C0.495368 10.0538 0.496826 10.0738 0.498805 10.0937C0.500785 10.1137 0.503232 10.1336 0.506149 10.1534C0.509118 10.1733 0.512555 10.193 0.516462 10.2126C0.520368 10.2323 0.524743 10.2518 0.529639 10.2713C0.534482 10.2907 0.539847 10.31 0.54568 10.3292C0.551514 10.3484 0.557764 10.3674 0.564535 10.3863C0.571305 10.4051 0.578493 10.4238 0.586201 10.4424C0.593857 10.4609 0.601982 10.4792 0.610576 10.4973C0.619118 10.5154 0.62818 10.5333 0.637607 10.551C0.647087 10.5687 0.65693 10.5861 0.667243 10.6033C0.677555 10.6204 0.688285 10.6374 0.69943 10.654C0.710576 10.6707 0.722139 10.6871 0.734066 10.7032C0.746045 10.7193 0.758337 10.7351 0.771097 10.7505C0.783805 10.766 0.796878 10.7812 0.810368 10.7961C0.823857 10.8109 0.83766 10.8254 0.851826 10.8396L9.15209 19.1386C9.16625 19.1528 9.18073 19.1666 9.19558 19.18C9.21042 19.1935 9.22558 19.2066 9.2411 19.2193C9.25657 19.232 9.27235 19.2443 9.28844 19.2563C9.30454 19.2682 9.32089 19.2798 9.33756 19.2909C9.35422 19.302 9.37115 19.3127 9.38829 19.323C9.40547 19.3334 9.42292 19.3432 9.44058 19.3527C9.45823 19.3621 9.47615 19.3711 9.49428 19.3797C9.51235 19.3883 9.53068 19.3964 9.54917 19.404C9.56766 19.4117 9.58636 19.4189 9.60521 19.4256C9.62412 19.4324 9.64313 19.4387 9.6623 19.4445C9.68146 19.4503 9.70073 19.4557 9.72021 19.4605C9.73964 19.4654 9.75917 19.4698 9.77881 19.4737C9.79844 19.4776 9.81818 19.4811 9.83803 19.484C9.85782 19.487 9.87771 19.4894 9.89766 19.4914C9.91756 19.4933 9.93756 19.4948 9.95756 19.4958C9.97756 19.4967 9.99761 19.4973 10.0176 19.4973C10.0377 19.4973 10.0577 19.4967 10.0777 19.4958C10.0977 19.4948 10.1177 19.4933 10.1376 19.4914C10.1576 19.4894 10.1775 19.487 10.1972 19.484C10.2171 19.4811 10.2368 19.4776 10.2565 19.4737C10.2761 19.4698 10.2956 19.4654 10.3151 19.4605C10.3345 19.4557 10.3538 19.4503 10.373 19.4445C10.3921 19.4387 10.4112 19.4324 10.4301 19.4256C10.4489 19.4189 10.4676 19.4117 10.4861 19.404C10.5046 19.3964 10.5229 19.3883 10.541 19.3797C10.5591 19.3711 10.577 19.3621 10.5947 19.3527C10.6123 19.3432 10.6298 19.3334 10.6469 19.323C10.6641 19.3127 10.681 19.302 10.6977 19.2909C10.7144 19.2798 10.7307 19.2682 10.7468 19.2563C10.7629 19.2443 10.7787 19.232 10.7942 19.2193C10.8097 19.2066 10.8248 19.1935 10.8397 19.18C10.8545 19.1666 10.869 19.1528 10.8832 19.1386L19.1448 10.89C19.159 10.8759 19.1728 10.8614 19.1863 10.8465C19.1997 10.8317 19.2129 10.8165 19.2256 10.8011C19.2383 10.7855 19.2506 10.7698 19.2626 10.7537C19.2745 10.7376 19.286 10.7212 19.2972 10.7046C19.3083 10.6879 19.3191 10.671 19.3294 10.6538C19.3397 10.6366 19.3496 10.6191 19.359 10.6015C19.3685 10.5838 19.3775 10.5659 19.3861 10.5478C19.3946 10.5297 19.4028 10.5114 19.4105 10.4928C19.4181 10.4743 19.4254 10.4557 19.4321 10.4368C19.4389 10.4179 19.4452 10.3989 19.451 10.3797C19.4568 10.3605 19.4621 10.3412 19.467 10.3218C19.4719 10.3023 19.4763 10.2828 19.4802 10.2632C19.4841 10.2435 19.4876 10.2237 19.4905 10.2039C19.4934 10.1841 19.4959 10.1642 19.4979 10.1442C19.4998 10.1243 19.5013 10.1043 19.5023 10.0843C19.5033 10.0643 19.5038 10.0442 19.5038 10.0242C19.5038 10.0041 19.5033 9.98414 19.5023 9.96409C19.5013 9.94409 19.4998 9.92409 19.4979 9.90414C19.4959 9.88419 19.4934 9.86435 19.4905 9.8445C19.4876 9.82466 19.4841 9.80492 19.4802 9.78529C19.4763 9.7656 19.4719 9.74607 19.467 9.72664C19.4621 9.70721 19.4568 9.68789 19.451 9.66872C19.4452 9.6495 19.4389 9.63049 19.4321 9.61164C19.4254 9.59278 19.4181 9.57409 19.4105 9.55555C19.4028 9.53706 19.3946 9.51872 19.3861 9.5006C19.3775 9.48247 19.3685 9.46461 19.359 9.4469C19.3496 9.42924 19.3397 9.4118 19.3294 9.39461C19.3191 9.37742 19.3083 9.36055 19.2972 9.34388C19.286 9.32721 19.2745 9.31081 19.2626 9.29471C19.2506 9.27862 19.2383 9.26284 19.2256 9.24737C19.2129 9.2319 19.1997 9.21669 19.1863 9.20185C19.1728 9.187 19.159 9.17252 19.1448 9.15836" fill="#F03C2E"/>
</g>
</g>
<defs>
<clipPath id="clip0_72_72">
<rect width="20" height="20" fill="white"/>
</clipPath>
</defs>
</svg>
