<svg width="20" height="20" viewBox="0 0 20 20" fill="none" xmlns="http://www.w3.org/2000/svg">
<g clip-path="url(#clip0_72_24)">
<mask id="mask0_72_24" style="mask-type:luminance" maskUnits="userSpaceOnUse" x="0" y="0" width="20" height="20">
<path d="M0.612396 0.612549H19.3924V19.3925H0.612396V0.612549Z" fill="white"/>
</mask>
<g mask="url(#mask0_72_24)">
<path d="M0.612396 0.612549H19.3924V19.3925H0.612396V0.612549Z" fill="#FFD600"/>
</g>
<path d="M12.8914 14.6697C13.2524 15.256 13.6447 15.8178 14.4757 15.8178C15.1737 15.8178 15.5399 15.471 15.5399 14.991C15.5399 14.4166 15.1612 14.2127 14.3933 13.8783L13.9723 13.6988C12.7573 13.1835 11.9493 12.5376 11.9493 11.1735C11.9493 9.91622 12.9117 8.95951 14.4157 8.95951C15.4867 8.95951 16.2562 9.33039 16.8112 10.3017L15.4998 11.1401C15.2113 10.6247 14.8993 10.4217 14.4157 10.4217C13.9222 10.4217 13.6098 10.7332 13.6098 11.1401C13.6098 11.6429 13.9227 11.8464 14.6452 12.1578L15.0662 12.3373C16.4982 12.9471 17.3057 13.57 17.3057 14.9701C17.3057 16.4788 16.1142 17.3057 14.5148 17.3057C12.9503 17.3057 12.0619 16.5205 11.5674 15.5487L12.8914 14.6697ZM6.84736 14.7124C7.11132 15.1851 7.51252 15.5487 8.08944 15.5487C8.64137 15.5487 8.95908 15.3306 8.95908 14.4829V8.95898H10.6978V14.75C10.6978 16.5064 9.67897 17.3057 8.19116 17.3057C6.84684 17.3057 5.87653 16.3948 5.48111 15.5487L6.84736 14.7124Z" fill="#000001"/>
</g>
<defs>
<clipPath id="clip0_72_24">
<rect width="20" height="20" fill="white"/>
</clipPath>
</defs>
</svg>
