<svg width="30" height="30" viewBox="0 0 30 30" fill="none" xmlns="http://www.w3.org/2000/svg">
<g clip-path="url(#clip0_67_2210)">
<mask id="mask0_67_2210" style="mask-type:luminance" maskUnits="userSpaceOnUse" x="0" y="0" width="30" height="30">
<path d="M0.918579 0.91864H29.0886V29.0886H0.918579V0.91864Z" fill="white"/>
</mask>
<g mask="url(#mask0_67_2210)">
<path d="M0.918579 0.91864H29.0886V29.0886H0.918579V0.91864Z" fill="#FFD600"/>
</g>
<path d="M19.3371 22.0046C19.8786 22.8841 20.467 23.7268 21.7135 23.7268C22.7606 23.7268 23.3099 23.2065 23.3099 22.4866C23.3099 21.625 22.7417 21.3191 21.5899 20.8175L20.9584 20.5483C19.1359 19.7753 17.9239 18.8065 17.9239 16.7603C17.9239 14.8744 19.3676 13.4393 21.6235 13.4393C23.23 13.4393 24.3842 13.9956 25.2168 15.4527L23.2496 16.7102C22.8169 15.9371 22.3489 15.6327 21.6235 15.6327C20.8833 15.6327 20.4146 16.0998 20.4146 16.7102C20.4146 17.4645 20.8841 17.7697 21.9678 18.2368L22.5993 18.506C24.7473 19.4207 25.9586 20.355 25.9586 22.4553C25.9586 24.7183 24.1713 25.9585 21.7722 25.9585C19.4255 25.9585 18.0929 24.7809 17.3511 23.3231L19.3371 22.0046ZM10.271 22.0687C10.667 22.7777 11.2688 23.3231 12.1341 23.3231C12.962 23.3231 13.4386 22.996 13.4386 21.7244V13.4385H16.0466V22.1251C16.0466 24.7597 14.5184 25.9585 12.2867 25.9585C10.2702 25.9585 8.81477 24.5923 8.22165 23.3231L10.271 22.0687Z" fill="#000001"/>
</g>
<defs>
<clipPath id="clip0_67_2210">
<rect width="30" height="30" fill="white"/>
</clipPath>
</defs>
</svg>
