<svg width="30" height="30" viewBox="0 0 30 30" fill="none" xmlns="http://www.w3.org/2000/svg">
<path d="M13.8264 1.38999C14.5232 0.995376 15.4115 0.993658 16.0909 1.38999L26.4936 7.2546C27.1441 7.62045 27.5796 8.346 27.5735 9.096V20.8548C27.5779 21.6362 27.0997 22.3774 26.4134 22.7362L16.0665 28.5739C16.0225 28.5982 15.9778 28.621 15.9322 28.6423C15.8868 28.6637 15.8406 28.6835 15.7937 28.7018C15.7469 28.72 15.6995 28.7367 15.6516 28.7518C15.6036 28.7669 15.5553 28.7804 15.5064 28.7922C15.4575 28.8041 15.4084 28.8144 15.3589 28.823C15.3093 28.8316 15.2596 28.8386 15.2096 28.8438C15.1597 28.8491 15.1095 28.8527 15.0593 28.8547C15.0091 28.8566 14.9589 28.8569 14.9086 28.8555C14.8583 28.8541 14.8082 28.8511 14.7582 28.8464C14.7082 28.8416 14.6583 28.8352 14.6087 28.8272C14.5591 28.8191 14.5098 28.8094 14.4608 28.7981C14.4118 28.7868 14.3633 28.7739 14.3152 28.7593C14.2671 28.7448 14.2195 28.7286 14.1725 28.7108C14.1254 28.6931 14.0791 28.6739 14.0333 28.653C13.9875 28.6322 13.9425 28.6099 13.8983 28.5861C13.854 28.5623 13.8106 28.537 13.768 28.5103L10.6631 26.716C10.4515 26.5897 10.2137 26.4895 10.0639 26.2848C10.1963 26.1072 10.4314 26.0845 10.623 26.0061C11.055 25.8685 11.4504 25.6577 11.8476 25.4347C11.9478 25.3651 12.0706 25.3912 12.1664 25.4539L14.814 26.9851C15.0031 27.094 15.1947 26.9503 15.3567 26.8588L25.5163 21.1248C25.6418 21.0639 25.7114 20.9315 25.701 20.7939V9.14819C25.7149 8.99147 25.6252 8.84858 25.4832 8.78499L15.1625 2.97264C15.1476 2.96241 15.1322 2.95334 15.1161 2.94545C15.0999 2.93756 15.0832 2.93092 15.0661 2.92553C15.049 2.92022 15.0315 2.91616 15.0137 2.91342C14.9959 2.91069 14.9781 2.90928 14.96 2.9092C14.9421 2.9092 14.9243 2.91053 14.9065 2.91319C14.8886 2.91585 14.8712 2.91983 14.854 2.92514C14.8368 2.93038 14.8201 2.93694 14.804 2.94483C14.7878 2.95264 14.7723 2.96163 14.7575 2.97178L4.45145 8.79631C4.31215 8.85991 4.21629 9.001 4.23372 9.1578V20.8034C4.22153 20.9411 4.29473 21.0708 4.42098 21.1301L7.17497 22.6849C7.69231 22.9636 8.32723 23.1204 8.89684 22.9157C8.92778 22.904 8.95817 22.8912 8.98817 22.8773C9.01809 22.8633 9.04747 22.8482 9.07629 22.832C9.10512 22.8158 9.13333 22.7985 9.16083 22.7802C9.18832 22.7619 9.21504 22.7425 9.24114 22.7221C9.26715 22.7018 9.29239 22.6805 9.31676 22.6581C9.34122 22.6358 9.36473 22.6126 9.38739 22.5886C9.41004 22.5645 9.43176 22.5396 9.45254 22.5139C9.47333 22.4882 9.49309 22.4617 9.51184 22.4345C9.53059 22.4073 9.54825 22.3794 9.56489 22.3508C9.58153 22.3223 9.59707 22.2931 9.61153 22.2633C9.62598 22.2336 9.63926 22.2033 9.65137 22.1726C9.66348 22.1419 9.67442 22.1107 9.68418 22.0791C9.69395 22.0475 9.70254 22.0156 9.70989 21.9833C9.71723 21.9512 9.72333 21.9187 9.72817 21.886C9.73309 21.8533 9.73668 21.8205 9.73911 21.7875C9.74153 21.7545 9.74262 21.7215 9.74254 21.6884L9.74512 10.1125C9.73293 9.94085 9.89489 9.79889 10.0613 9.81631H11.3851C11.5593 9.81194 11.6961 9.99663 11.6725 10.169L11.6699 21.8182C11.6708 22.853 11.2457 23.9783 10.2886 24.4862C9.10934 25.0958 7.65137 24.9678 6.48598 24.3816L3.52481 22.7441C2.82801 22.3957 2.36036 21.6431 2.36465 20.8627V9.10381C2.36504 9.05631 2.367 9.00881 2.37051 8.96147C2.37403 8.91413 2.37911 8.86686 2.38575 8.81983C2.39239 8.7728 2.40059 8.726 2.41036 8.67952C2.42012 8.63303 2.43145 8.58694 2.44426 8.54116C2.45715 8.49545 2.47145 8.45014 2.48731 8.40538C2.50317 8.36061 2.52043 8.31639 2.53926 8.27272C2.55801 8.22913 2.57825 8.18616 2.59989 8.14381C2.62153 8.10155 2.64458 8.06006 2.66895 8.01928C2.69333 7.9785 2.71911 7.93858 2.74614 7.89952C2.77325 7.86053 2.80153 7.82241 2.83114 7.78522C2.86075 7.74803 2.89153 7.71194 2.92356 7.67678C2.95551 7.6417 2.98864 7.60764 3.02293 7.57475C3.05715 7.54186 3.09247 7.51014 3.12887 7.47952C3.1652 7.44897 3.20254 7.41967 3.2409 7.39155C3.27918 7.3635 3.3184 7.3367 3.35856 7.31124C3.39864 7.28577 3.4395 7.2617 3.48122 7.23897L13.8264 1.38999ZM16.826 9.54108C18.3301 9.45397 19.9405 9.48358 21.2939 10.2248C22.3417 10.7927 22.9226 11.9843 22.9418 13.1498C22.9122 13.3065 22.7484 13.3937 22.5986 13.3823C22.1632 13.3814 21.7259 13.3884 21.2887 13.3797C21.1032 13.3866 20.9961 13.2159 20.9725 13.0522C20.8472 12.4948 20.5432 11.9433 20.0189 11.6742C19.2141 11.2709 18.2804 11.2909 17.4025 11.2997C16.7615 11.3345 16.0726 11.3894 15.53 11.7657C15.1119 12.0514 14.9865 12.6367 15.1354 13.0914C15.2748 13.425 15.6606 13.5321 15.975 13.6314C17.7884 14.1052 19.7088 14.0669 21.4882 14.6827C22.2241 14.9371 22.9444 15.4319 23.197 16.2027C23.5262 17.2357 23.3825 18.4708 22.6482 19.3001C22.0525 19.983 21.185 20.3453 20.3185 20.5561C19.1662 20.813 17.9713 20.8191 16.8016 20.7041C15.7015 20.5787 14.5572 20.2895 13.7079 19.5405C12.9816 18.9098 12.628 17.9273 12.6628 16.9797C12.6715 16.8194 12.8309 16.7079 12.985 16.7209H14.2915C14.4675 16.7087 14.5963 16.8603 14.605 17.0258C14.6861 17.5484 14.8855 18.1146 15.3488 18.4194C16.2424 18.9961 17.3633 18.956 18.3858 18.9726C19.2332 18.9351 20.1843 18.9237 20.8768 18.3628C21.2425 18.0432 21.3497 17.5092 21.2513 17.0493C21.1441 16.6608 20.7287 16.4805 20.3804 16.3525C18.5905 15.7863 16.6483 15.9919 14.8759 15.3508C14.1565 15.0965 13.4606 14.6157 13.1845 13.8762C12.7987 12.8309 12.9755 11.5357 13.7881 10.7344C14.5719 9.93741 15.7216 9.62991 16.8103 9.52014L16.826 9.54108Z" fill="#8CC84B"/>
</svg>
