<svg width="20" height="20" viewBox="0 0 20 20" fill="none" xmlns="http://www.w3.org/2000/svg">
<g clip-path="url(#clip0_72_31)">
<mask id="mask0_72_31" style="mask-type:luminance" maskUnits="userSpaceOnUse" x="0" y="0" width="15" height="15">
<path d="M0.64093 0.691895H14.5333V14.5999H0.64093V0.691895Z" fill="white"/>
</mask>
<g mask="url(#mask0_72_31)">
<mask id="mask1_72_31" style="mask-type:luminance" maskUnits="userSpaceOnUse" x="0" y="0" width="15" height="15">
<path d="M9.93639 0.689697C5.18586 0.689697 5.48248 2.74991 5.48248 2.74991L5.48774 4.88433H10.0207V5.52517H3.68727C3.68727 5.52517 0.647583 5.18037 0.647583 9.97386C0.647531 14.7677 3.30071 14.5977 3.30071 14.5977H4.88404V12.373C4.88404 12.373 4.79868 9.71959 7.49482 9.71959H11.9909C11.9909 9.71959 14.5165 9.76064 14.5165 7.27819V3.17366C14.5165 3.17366 14.9004 0.689697 9.93639 0.689697ZM7.43659 2.12496C7.88753 2.12496 8.25191 2.48954 8.25191 2.94058C8.25191 3.39168 7.88753 3.75621 7.43659 3.75621C6.9855 3.75621 6.62102 3.39168 6.62102 2.94058C6.62102 2.48954 6.9855 2.12496 7.43659 2.12496Z" fill="white"/>
</mask>
<g mask="url(#mask1_72_31)">
<path d="M0.6474 0.691895V14.7679H14.9003V0.691895H0.6474Z" fill="url(#paint0_linear_72_31)"/>
</g>
</g>
<mask id="mask2_72_31" style="mask-type:luminance" maskUnits="userSpaceOnUse" x="5" y="5" width="15" height="15">
<path d="M5.47998 5.38647H19.36V19.3118H5.47998V5.38647Z" fill="white"/>
</mask>
<g mask="url(#mask2_72_31)">
<mask id="mask3_72_31" style="mask-type:luminance" maskUnits="userSpaceOnUse" x="5" y="5" width="15" height="15">
<path d="M10.0711 19.3066C14.8212 19.3066 14.5244 17.246 14.5244 17.246L14.5193 15.1114H9.98608V14.471H16.3196C16.3196 14.471 19.3595 14.8154 19.3595 10.0222C19.3595 5.22845 16.7064 5.39845 16.7064 5.39845H15.1231V7.62283C15.1231 7.62283 15.2081 10.2765 12.5124 10.2765H8.01588C8.01588 10.2765 5.49015 10.2355 5.49015 12.7181V16.8225C5.49015 16.8225 5.1066 19.3066 10.0711 19.3066ZM12.5703 17.8711C12.1197 17.8711 11.7548 17.5061 11.7548 17.0555C11.7548 16.6041 12.1197 16.2399 12.5703 16.2399C13.0217 16.2399 13.3858 16.6041 13.3858 17.0555C13.3858 17.5061 13.0217 17.8711 12.5703 17.8711Z" fill="white"/>
</mask>
<g mask="url(#mask3_72_31)">
<path d="M5.10669 5.22827V19.3064H19.3596V5.22827H5.10669Z" fill="url(#paint1_linear_72_31)"/>
</g>
</g>
</g>
<defs>
<linearGradient id="paint0_linear_72_31" x1="0.705288" y1="0.633405" x2="14.9419" y2="14.7259" gradientUnits="userSpaceOnUse">
<stop stop-color="#387EB8"/>
<stop offset="0.125" stop-color="#387EB8"/>
<stop offset="0.140625" stop-color="#387EB8"/>
<stop offset="0.15625" stop-color="#387DB7"/>
<stop offset="0.171875" stop-color="#387DB6"/>
<stop offset="0.1875" stop-color="#387CB5"/>
<stop offset="0.203125" stop-color="#387CB4"/>
<stop offset="0.21875" stop-color="#387BB3"/>
<stop offset="0.234375" stop-color="#387BB2"/>
<stop offset="0.25" stop-color="#387AB1"/>
<stop offset="0.265625" stop-color="#387AB1"/>
<stop offset="0.28125" stop-color="#3879B0"/>
<stop offset="0.296875" stop-color="#3879AF"/>
<stop offset="0.3125" stop-color="#3878AE"/>
<stop offset="0.328125" stop-color="#3778AD"/>
<stop offset="0.34375" stop-color="#3777AC"/>
<stop offset="0.359375" stop-color="#3777AB"/>
<stop offset="0.375" stop-color="#3776AB"/>
<stop offset="0.390625" stop-color="#3776AA"/>
<stop offset="0.40625" stop-color="#3775A9"/>
<stop offset="0.421875" stop-color="#3775A8"/>
<stop offset="0.4375" stop-color="#3774A7"/>
<stop offset="0.453125" stop-color="#3774A6"/>
<stop offset="0.46875" stop-color="#3773A5"/>
<stop offset="0.484375" stop-color="#3773A4"/>
<stop offset="0.494335" stop-color="#3772A4"/>
<stop offset="0.5" stop-color="#3772A3"/>
<stop offset="0.505665" stop-color="#3772A3"/>
<stop offset="0.515625" stop-color="#3771A2"/>
<stop offset="0.53125" stop-color="#3771A2"/>
<stop offset="0.546875" stop-color="#3771A1"/>
<stop offset="0.5625" stop-color="#3770A0"/>
<stop offset="0.578125" stop-color="#37709F"/>
<stop offset="0.59375" stop-color="#376F9E"/>
<stop offset="0.609375" stop-color="#376F9D"/>
<stop offset="0.625" stop-color="#376E9D"/>
<stop offset="0.640625" stop-color="#366E9C"/>
<stop offset="0.65625" stop-color="#366D9B"/>
<stop offset="0.671875" stop-color="#366D9A"/>
<stop offset="0.6875" stop-color="#366C99"/>
<stop offset="0.703125" stop-color="#366C98"/>
<stop offset="0.71875" stop-color="#366B97"/>
<stop offset="0.734375" stop-color="#366B97"/>
<stop offset="0.75" stop-color="#366A96"/>
<stop offset="0.765625" stop-color="#366A95"/>
<stop offset="0.78125" stop-color="#366994"/>
<stop offset="0.8125" stop-color="#366994"/>
<stop offset="0.875" stop-color="#366994"/>
<stop offset="1" stop-color="#366994"/>
</linearGradient>
<linearGradient id="paint1_linear_72_31" x1="5.03037" y1="5.30898" x2="19.5858" y2="19.0671" gradientUnits="userSpaceOnUse">
<stop stop-color="#FFE052"/>
<stop offset="0.125" stop-color="#FFE052"/>
<stop offset="0.1875" stop-color="#FFE052"/>
<stop offset="0.21875" stop-color="#FFE052"/>
<stop offset="0.234375" stop-color="#FFDF51"/>
<stop offset="0.25" stop-color="#FFDF51"/>
<stop offset="0.265625" stop-color="#FFDE50"/>
<stop offset="0.28125" stop-color="#FFDD4F"/>
<stop offset="0.296875" stop-color="#FFDD4E"/>
<stop offset="0.3125" stop-color="#FFDC4E"/>
<stop offset="0.328125" stop-color="#FFDB4D"/>
<stop offset="0.34375" stop-color="#FFDB4C"/>
<stop offset="0.359375" stop-color="#FFDA4B"/>
<stop offset="0.375" stop-color="#FFD94B"/>
<stop offset="0.390625" stop-color="#FFD94A"/>
<stop offset="0.40625" stop-color="#FFD849"/>
<stop offset="0.421875" stop-color="#FFD748"/>
<stop offset="0.4375" stop-color="#FFD748"/>
<stop offset="0.453125" stop-color="#FFD647"/>
<stop offset="0.46875" stop-color="#FFD546"/>
<stop offset="0.482837" stop-color="#FFD545"/>
<stop offset="0.484375" stop-color="#FFD445"/>
<stop offset="0.5" stop-color="#FFD445"/>
<stop offset="0.515625" stop-color="#FFD444"/>
<stop offset="0.517163" stop-color="#FFD343"/>
<stop offset="0.53125" stop-color="#FFD343"/>
<stop offset="0.546875" stop-color="#FFD242"/>
<stop offset="0.5625" stop-color="#FFD242"/>
<stop offset="0.578125" stop-color="#FFD141"/>
<stop offset="0.59375" stop-color="#FFD040"/>
<stop offset="0.609375" stop-color="#FFD03F"/>
<stop offset="0.625" stop-color="#FFCF3F"/>
<stop offset="0.640625" stop-color="#FFCE3E"/>
<stop offset="0.65625" stop-color="#FFCE3D"/>
<stop offset="0.671875" stop-color="#FFCD3C"/>
<stop offset="0.6875" stop-color="#FFCC3C"/>
<stop offset="0.703125" stop-color="#FFCC3B"/>
<stop offset="0.71875" stop-color="#FFCB3A"/>
<stop offset="0.734375" stop-color="#FFCA39"/>
<stop offset="0.75" stop-color="#FFCA39"/>
<stop offset="0.765625" stop-color="#FFC938"/>
<stop offset="0.78125" stop-color="#FFC837"/>
<stop offset="0.796875" stop-color="#FFC836"/>
<stop offset="0.8125" stop-color="#FFC735"/>
<stop offset="0.828125" stop-color="#FFC635"/>
<stop offset="0.84375" stop-color="#FFC634"/>
<stop offset="0.859375" stop-color="#FFC533"/>
<stop offset="0.875" stop-color="#FFC432"/>
<stop offset="0.890625" stop-color="#FFC432"/>
<stop offset="0.90625" stop-color="#FFC331"/>
<stop offset="0.9375" stop-color="#FFC331"/>
<stop offset="1" stop-color="#FFC331"/>
</linearGradient>
<clipPath id="clip0_72_31">
<rect width="20" height="20" fill="white"/>
</clipPath>
</defs>
</svg>
