<svg width="43" height="43" viewBox="0 0 43 43" fill="none" xmlns="http://www.w3.org/2000/svg">
<rect width="43" height="43" rx="8" fill="#A5B4FC"/>
<path d="M14.5806 29.252C13.4206 29.252 12.3926 29.116 11.4966 28.844C10.6086 28.564 9.88863 28.196 9.33663 27.74C8.58463 27.18 8.20863 26.508 8.20863 25.724C8.20863 25.372 8.33663 25.028 8.59263 24.692C8.84863 24.356 9.24863 24.188 9.79263 24.188C10.2566 24.188 10.6486 24.288 10.9686 24.488C11.2886 24.688 11.5886 24.92 11.8686 25.184C12.1966 25.52 12.5766 25.816 13.0086 26.072C13.4406 26.328 13.9886 26.456 14.6526 26.456C15.1006 26.456 15.5006 26.396 15.8526 26.276C16.2126 26.148 16.4966 25.968 16.7046 25.736C16.9126 25.504 17.0166 25.228 17.0166 24.908C17.0166 24.396 16.7606 24.02 16.2486 23.78C15.7366 23.532 14.9566 23.288 13.9086 23.048C12.0046 22.616 10.6246 21.984 9.76863 21.152C8.92063 20.32 8.49663 19.324 8.49663 18.164C8.49663 17.308 8.77263 16.568 9.32463 15.944C9.87663 15.32 10.6246 14.84 11.5686 14.504C12.5206 14.168 13.5926 14 14.7846 14C15.6646 14 16.5166 14.116 17.3406 14.348C18.1646 14.572 18.8526 14.904 19.4046 15.344C19.7326 15.576 19.9966 15.848 20.1966 16.16C20.3966 16.472 20.4966 16.824 20.4966 17.216C20.4966 17.68 20.3526 18.048 20.0646 18.32C19.7846 18.584 19.4126 18.716 18.9486 18.716C18.4926 18.716 18.1006 18.6 17.7726 18.368C17.4446 18.136 17.1766 17.92 16.9686 17.72C16.7446 17.456 16.4366 17.236 16.0446 17.06C15.6526 16.884 15.1726 16.796 14.6046 16.796C14.1886 16.796 13.8206 16.852 13.5006 16.964C13.1806 17.068 12.9326 17.22 12.7566 17.42C12.5806 17.612 12.4926 17.84 12.4926 18.104C12.4926 18.512 12.7446 18.864 13.2486 19.16C13.7606 19.456 14.5446 19.736 15.6006 20C16.6566 20.256 17.5886 20.572 18.3966 20.948C19.2126 21.324 19.8526 21.808 20.3166 22.4C20.7806 22.992 21.0126 23.74 21.0126 24.644C21.0126 25.58 20.7406 26.396 20.1966 27.092C19.6526 27.78 18.8966 28.312 17.9286 28.688C16.9606 29.064 15.8446 29.252 14.5806 29.252ZM30.376 29.252C29.56 29.252 28.728 29.132 27.88 28.892C27.04 28.652 26.264 28.244 25.552 27.668C24.84 27.092 24.268 26.312 23.836 25.328C23.404 24.344 23.188 23.112 23.188 21.632C23.188 20.144 23.404 18.908 23.836 17.924C24.268 16.932 24.84 16.152 25.552 15.584C26.264 15.008 27.04 14.6 27.88 14.36C28.728 14.12 29.56 14 30.376 14C31.088 14 31.768 14.1 32.416 14.3C33.064 14.492 33.644 14.764 34.156 15.116C34.676 15.468 35.084 15.876 35.38 16.34C35.676 16.804 35.824 17.304 35.824 17.84C35.824 18.344 35.656 18.748 35.32 19.052C34.992 19.356 34.6 19.508 34.144 19.508C33.592 19.508 33.204 19.388 32.98 19.148C32.764 18.9 32.588 18.624 32.452 18.32C32.356 18.08 32.228 17.844 32.068 17.612C31.916 17.372 31.704 17.176 31.432 17.024C31.168 16.872 30.816 16.796 30.376 16.796C29.832 16.796 29.312 16.956 28.816 17.276C28.328 17.588 27.932 18.096 27.628 18.8C27.324 19.504 27.172 20.448 27.172 21.632C27.172 22.808 27.324 23.752 27.628 24.464C27.932 25.168 28.328 25.676 28.816 25.988C29.312 26.3 29.832 26.456 30.376 26.456C30.816 26.456 31.168 26.38 31.432 26.228C31.704 26.076 31.916 25.884 32.068 25.652C32.228 25.412 32.356 25.172 32.452 24.932C32.588 24.628 32.764 24.356 32.98 24.116C33.204 23.868 33.592 23.744 34.144 23.744C34.6 23.744 34.992 23.9 35.32 24.212C35.656 24.516 35.824 24.916 35.824 25.412C35.824 25.948 35.672 26.448 35.368 26.912C35.072 27.376 34.668 27.784 34.156 28.136C33.644 28.488 33.06 28.764 32.404 28.964C31.756 29.156 31.08 29.252 30.376 29.252Z" fill="#1E1B4B"/>
</svg>
