<svg width="20" height="20" viewBox="0 0 20 20" fill="none" xmlns="http://www.w3.org/2000/svg">
<mask id="mask0_72_113" style="mask-type:luminance" maskUnits="userSpaceOnUse" x="0" y="1" width="20" height="19">
<path d="M0.773438 1.18677H19.5159V19.4801H0.773438V1.18677Z" fill="white"/>
</mask>
<g mask="url(#mask0_72_113)">
<path fill-rule="evenodd" clip-rule="evenodd" d="M18.0391 15.3373C17.02 15.3089 16.2294 15.4133 15.5668 15.6921C15.376 15.7687 15.0698 15.7687 15.0446 16.0088C15.1466 16.1096 15.1589 16.2745 15.2483 16.4142C15.4011 16.6677 15.669 17.0092 15.9109 17.1862L16.7264 17.769C17.2233 18.0727 17.784 18.2501 18.2681 18.5541C18.5486 18.7315 18.8288 18.9595 19.1093 19.1496C19.2521 19.251 19.3387 19.4159 19.5171 19.4789V19.4406C19.428 19.327 19.4024 19.1624 19.3135 19.0353L18.9308 18.6682C18.5615 18.1743 18.1025 17.7434 17.6055 17.3892C17.1977 17.1105 16.3059 16.7307 16.1403 16.2623L16.1152 16.234C16.3951 16.2056 16.7264 16.1071 16.9943 16.031C17.4279 15.9174 17.8226 15.9424 18.2681 15.8286L18.8802 15.6512V15.5377C18.6509 15.3097 18.4852 15.0057 18.2433 14.7906C17.5936 14.2334 16.8795 13.6887 16.1403 13.2329C15.7453 12.9796 15.2355 12.8147 14.815 12.5998C14.6617 12.5238 14.4071 12.4858 14.318 12.3592C14.0881 12.081 13.9611 11.7134 13.7954 11.3838L12.7506 9.18036C12.5212 8.68645 12.3807 8.19255 12.1008 7.73671C10.7881 5.58374 9.36059 4.27947 7.16876 3.00015C6.69746 2.73416 6.13678 2.61979 5.54074 2.48072L4.58506 2.42963C4.38085 2.34104 4.1772 2.10036 3.99866 1.98624C3.27236 1.53041 1.39897 0.542597 0.86345 1.84432C0.519283 2.66749 1.37324 3.47786 1.66319 3.89598C1.88022 4.18718 2.16017 4.51645 2.3135 4.84572C2.39923 5.06088 2.42777 5.28911 2.51715 5.51702C2.72079 6.07421 2.9122 6.69499 3.1798 7.21442C3.32262 7.48041 3.47256 7.75942 3.65105 7.99984C3.75303 8.14177 3.93152 8.20249 3.96954 8.43041C3.791 8.6839 3.77876 9.06343 3.67678 9.38046C3.21777 10.8116 3.39631 12.5845 4.04611 13.6382C4.25032 13.9547 4.73158 14.6515 5.38449 14.3853C5.95803 14.1573 5.83006 13.4355 5.99574 12.8022C6.03428 12.6504 6.00855 12.5491 6.0848 12.4474V12.4758L6.60751 13.5269C7.00251 14.1474 7.69085 14.7934 8.26407 15.2243C8.5697 15.4522 8.81189 15.8451 9.19407 15.9842V15.9458H9.16892C9.09241 15.8323 8.97756 15.7812 8.87558 15.6927C8.64626 15.4647 8.39147 15.186 8.21298 14.9328C7.67803 14.2237 7.20673 13.4383 6.786 12.628C6.58178 12.2354 6.40329 11.8048 6.23819 11.4122C6.16111 11.2601 6.16111 11.0319 6.03397 10.9564C5.84262 11.2346 5.56272 11.4758 5.42189 11.8176C5.1797 12.362 5.15454 13.0333 5.06548 13.7298C5.01402 13.7427 5.03689 13.7298 5.01402 13.7582C4.60673 13.6572 4.46621 13.2388 4.31345 12.8846C3.93126 11.9853 3.8673 10.5417 4.19861 9.50307C4.28772 9.23713 4.67043 8.40119 4.51767 8.14802C4.44053 7.90729 4.18631 7.76822 4.04579 7.57801C3.88017 7.33734 3.7022 7.03359 3.58741 6.76765C3.28178 6.05801 3.12897 5.27317 2.79736 4.56385C2.64397 4.23458 2.37668 3.89255 2.15986 3.58885C1.91767 3.24682 1.65064 3.00609 1.45923 2.60104C1.39553 2.45911 1.30642 2.23374 1.4084 2.08161C1.43355 1.98031 1.48496 1.93968 1.58637 1.91697C1.75199 1.77505 2.22387 1.95499 2.38949 2.03051C2.86079 2.22072 3.25579 2.39781 3.65079 2.66348C3.82928 2.7901 4.02069 3.03077 4.25001 3.09437H4.51793C4.92579 3.18296 5.38423 3.12275 5.76611 3.2363C6.44158 3.45202 7.05309 3.76822 7.60147 4.11057C9.27064 5.16166 10.6473 6.65609 11.5773 8.44208C11.7301 8.73328 11.7938 8.99927 11.9343 9.30328C12.2022 9.924 12.5335 10.557 12.8006 11.1653C13.0685 11.7605 13.3232 12.3688 13.7054 12.8627C13.8968 13.1286 14.6611 13.2678 15.005 13.4071C15.26 13.5207 15.6548 13.6229 15.8847 13.7619C16.3177 14.0279 16.7509 14.3319 17.1586 14.6231C17.3622 14.7747 17.9997 15.0915 18.0377 15.3441L18.0391 15.3373ZM5.04345 4.33197C4.86663 4.33041 4.69262 4.3515 4.52137 4.39525V4.42364H4.54647C4.64845 4.6263 4.82694 4.76567 4.95434 4.94307L5.24767 5.55109L5.27282 5.5227C5.45131 5.39609 5.54069 5.19343 5.54069 4.88973C5.46418 4.80114 5.45157 4.71234 5.38793 4.62374C5.31137 4.49718 5.14569 4.43359 5.04345 4.33255V4.33197Z" fill="#00678C"/>
</g>
</svg>
